<svg id="Capa_1" data-name="Capa 1" xmlns="http://www.w3.org/2000/svg" viewBox="0 0 98.48 98.48"><defs><style>.cls-1{fill:#00b4cf;}</style></defs><title>Eyesearch</title><path class="cls-1" d="M54.37,63.7a34.88,34.88,0,0,1-9.95,1.5c-16.2,0-29.83-12.44-34.55-17.31,3.19-3.29,10.44-10,19.81-14A17.63,17.63,0,0,0,51.91,59.48,22.23,22.23,0,0,1,66.48,29a47.12,47.12,0,0,0-22.06-6C21.23,23,3.1,44,2.33,44.87a4.64,4.64,0,0,0,0,6.05c.76.9,18.89,21.89,42.08,21.89a44,44,0,0,0,16.3-3.31,22.24,22.24,0,0,1-6.35-5.8ZM32.69,37.77c1.12-2.06,3.29-3,4.85-2.18s1.92,3.2.8,5.26-3.3,3-4.86,2.18S31.56,39.82,32.69,37.77Z"/><path class="cls-1" d="M81.59,66.54a.8.8,0,0,1,1,.13l7.11,7.12c1.91,1.9,4.58,2.36,6.27.67l.29-.29c1.69-1.7,1.23-4.36-.67-6.27l-7.14-7.13a.79.79,0,0,1-.11-.94,18.41,18.41,0,0,0-2.82-22.66A18.77,18.77,0,0,0,58.93,63.72,18.41,18.41,0,0,0,81.59,66.54Zm-19.2-6.29a13.87,13.87,0,1,1,19.62,0A13.89,13.89,0,0,1,62.39,60.25Z"/><path class="cls-1" d="M79,48.14a8.34,8.34,0,0,0-10.91-4.42,1.94,1.94,0,1,1-1.51-3.57,12.22,12.22,0,0,1,16,6.48,1.93,1.93,0,0,1-1,2.54,1.84,1.84,0,0,1-.75.16A1.94,1.94,0,0,1,79,48.14Z"/></svg>