<svg id="Capa_1" data-name="Capa 1" xmlns="http://www.w3.org/2000/svg" viewBox="0 0 98.5 98.5"><defs><style>.cls-1{fill:#00b4cf;}</style></defs><title>more</title><path class="cls-1" d="M96.71,74.24,79.38,56.92a3.56,3.56,0,0,0-2.56-1.06,3.6,3.6,0,0,0-2.57,1.06l-1.57,1.57a3.6,3.6,0,0,0-1.06,2.56,3.51,3.51,0,0,0,1.06,2.53l8.51,8.48H41.54a3.73,3.73,0,0,0-3.67,3.7V78a3.66,3.66,0,0,0,3.7,3.6l.18,0H81.08L72.68,90a3.66,3.66,0,0,0,0,5.15l1.57,1.57a3.65,3.65,0,0,0,5.13,0L96.71,79.38a3.67,3.67,0,0,0,0-5.14Z"/><path class="cls-1" d="M69.85,87.16l1.59-1.6H62.07A38.5,38.5,0,1,1,86.63,58.51l7.2,7.2A47.45,47.45,0,1,0,67.65,93.07a4.36,4.36,0,0,1,0-.51A7.55,7.55,0,0,1,69.85,87.16Z"/><path class="cls-1" d="M17.5,51.44V34.34a.45.45,0,0,1,.49-.5h3.85a.65.65,0,0,1,.6.34l3.12,5.09c.08.16.24.16.31,0L29,34.18a.64.64,0,0,1,.59-.34h3.85a.46.46,0,0,1,.5.5v17.1a.45.45,0,0,1-.5.49H29.57a.45.45,0,0,1-.49-.49V42.32c0-.21-.16-.23-.26-.08l-1.6,2.67a.64.64,0,0,1-.6.33H24.81a.64.64,0,0,1-.59-.33l-1.6-2.67c-.11-.15-.26-.13-.26.08v9.12a.45.45,0,0,1-.49.49H18A.45.45,0,0,1,17.5,51.44Z"/><path class="cls-1" d="M35.72,45.32V40.46c0-4.08,2.9-6.82,7.24-6.82s7.26,2.74,7.26,6.82v4.86c0,4.16-2.9,6.92-7.26,6.92S35.72,49.48,35.72,45.32Zm9.64.15V40.41a2.4,2.4,0,1,0-4.78,0v5.06a2.4,2.4,0,1,0,4.78,0Z"/><path class="cls-1" d="M61.05,51.57l-2.79-6.43A.25.25,0,0,0,58,45h-.93a.19.19,0,0,0-.21.21v6.25a.45.45,0,0,1-.49.49H52.49a.45.45,0,0,1-.49-.49V34.34a.45.45,0,0,1,.49-.5h7.73a5.5,5.5,0,0,1,5.89,5.77A5,5,0,0,1,63,44.44a.18.18,0,0,0-.11.26l3.16,6.67c.15.36,0,.56-.37.56h-4.1A.55.55,0,0,1,61.05,51.57ZM56.86,38.21v2.87a.19.19,0,0,0,.21.21h2.35a1.65,1.65,0,1,0,0-3.28H57.07A.19.19,0,0,0,56.86,38.21Z"/><path class="cls-1" d="M80.51,38H73a.18.18,0,0,0-.2.2v2.28a.18.18,0,0,0,.2.2h4.6a.45.45,0,0,1,.49.49v3.16a.45.45,0,0,1-.49.49H73a.18.18,0,0,0-.2.2v2.54a.18.18,0,0,0,.2.2h7.55a.45.45,0,0,1,.49.49v3.18a.45.45,0,0,1-.49.49H68.39a.45.45,0,0,1-.49-.49V34.34a.45.45,0,0,1,.49-.5H80.51a.45.45,0,0,1,.49.5v3.17A.45.45,0,0,1,80.51,38Z"/></svg>