<svg id="Layer_1" data-name="Layer 1" xmlns="http://www.w3.org/2000/svg" viewBox="0 0 141.73 141.73"><defs><style>.cls-1{fill:#467186;}.cls-2{fill:#0190ff;}</style></defs><title>textNoti2</title><path class="cls-1" d="M53.14,63.63H72.25a2.47,2.47,0,0,0,0-4.93H53.14a2.47,2.47,0,0,0,0,4.93Z"/><path class="cls-1" d="M91.35,67.52H53.14a2.46,2.46,0,0,0,0,4.92H91.35a2.46,2.46,0,0,0,0-4.92Z"/><path class="cls-1" d="M91.35,76.34H53.14a2.46,2.46,0,1,0,0,4.92H91.35a2.46,2.46,0,1,0,0-4.92Z"/><path class="cls-1" d="M117.91,27.94l-50.18-.1a9.71,9.71,0,0,0-9.7,9.7v6.55l-10.87,0a9.71,9.71,0,0,0-9.71,9.71V84.89a9.71,9.71,0,0,0,9.71,9.7h7.93V108.3a2.49,2.49,0,0,0,1.57,2.3,2.42,2.42,0,0,0,.89.16,2.48,2.48,0,0,0,1.82-.8l14-15.37,24-.1a9.72,9.72,0,0,0,9.47-7.57l6.25,6.87a2.47,2.47,0,0,0,1.82.81,2.42,2.42,0,0,0,.88-.17,2.47,2.47,0,0,0,1.58-2.3V78.43h.58a9.73,9.73,0,0,0,9.71-9.71V37.65A9.73,9.73,0,0,0,117.91,27.94Zm-5.5,48v9.8L107,79.86V53.71A9.73,9.73,0,0,0,97.33,44L63,44.07V37.54a4.79,4.79,0,0,1,4.78-4.78l50.18.1a4.79,4.79,0,0,1,4.78,4.79V68.72a4.78,4.78,0,0,1-4.78,4.78h-3A2.46,2.46,0,0,0,112.41,76Zm-42,14.51L60,101.93v-9.8a2.46,2.46,0,0,0-2.46-2.46H47.16a4.79,4.79,0,0,1-4.79-4.78V53.82A4.8,4.8,0,0,1,47.16,49l13.33,0V48h0v1l36.84-.07a4.79,4.79,0,0,1,4.79,4.78V84.78a4.8,4.8,0,0,1-4.8,4.79l-25.09.1A2.51,2.51,0,0,0,70.42,90.47Z"/><path class="cls-2" d="M89.25,123.64H20.73V15.57H89.25v7.48h6.62V10A9.53,9.53,0,0,0,86.36.5H23.62A9.53,9.53,0,0,0,14.11,10V131.72a9.54,9.54,0,0,0,9.51,9.51H86.36a9.53,9.53,0,0,0,9.51-9.5v-30.4l-6.62,0ZM45,7.35H65a1.16,1.16,0,0,1,0,2.31H45a1.16,1.16,0,0,1,0-2.31ZM55,136.48a4.76,4.76,0,1,1,4.75-4.76A4.76,4.76,0,0,1,55,136.48Z"/></svg>