<svg id="Capa_1" data-name="Capa 1" xmlns="http://www.w3.org/2000/svg" viewBox="0 0 612.01 612.01"><defs><style>.cls-1{fill:#00b4cf;}</style></defs><title>viewmore2</title><path class="cls-1" d="M564.92,603.5a38.38,38.38,0,0,1-27.31-11.32L422,476.6l-5.84,4.08A259.36,259.36,0,0,1,84.5,84.5,259.34,259.34,0,0,1,480.68,416.19L476.61,422,592.22,537.61a38.61,38.61,0,0,1-27.3,65.89ZM268,68.06C157.73,68.06,68.06,157.73,68.06,268S157.73,467.83,268,467.83,467.83,378.16,467.83,268,378.17,68.06,268,68.06ZM238.18,374.27V297.72H161.62V238.17h76.56V161.62h59.54v76.55h76.55v59.55H297.72v76.55Z"/></svg>